<?xml version="1.0" encoding="UTF-8"?>
<svg id="Capa_2" data-name="Capa 2" xmlns="http://www.w3.org/2000/svg" viewBox="0 0 382.64 382.83">
  <defs>
    <style>
      .cls-1 {
        fill: #fff;
        stroke: #3c8be7;
        stroke-linecap: round;
        stroke-linejoin: round;
        stroke-width: 8px;
      }
    </style>
  </defs>
  <g id="Capa_1-2" data-name="Capa 1">
    <path class="cls-1" d="m378.64,179.68v23.43c-.3,2.4-.64,4.8-.9,7.21-4.01,37.07-17.44,70.33-41.1,99.17-29.42,35.86-67.06,58.12-112.77,66.44-6.92,1.26-13.95,1.95-20.92,2.9h-23.43c-2.4-.3-4.79-.63-7.19-.89-39.3-4.34-74.34-18.85-103.89-45.21C20.61,290.07-.71,236.34,4.87,172.55c3.49-39.94,19.17-75.19,45.93-105.07C87.34,26.66,133.28,5.39,188.09,4.06c35.46-.86,68.72,7.81,98.98,26.35,48.47,29.71,78.24,72.63,88.7,128.67,1.27,6.81,1.93,13.73,2.88,20.59Zm-77.49,107.51c.06-1.39.16-2.46.16-3.54,0-24.76.06-49.53-.04-74.29-.02-5.23-.37-10.49-1.01-15.68-3.3-26.74-19.31-43.54-45.08-46.53-18.5-2.14-34.22,3.4-45.39,19.17-.45.64-1.01,1.2-2.19,2.59v-18.75h-45.36v136.94h45.41v-4.53c0-18.05-.02-36.11.01-54.16.02-7.44-.01-14.88.3-22.31.34-8.27,4.52-14.61,11.14-19.22,13.15-9.17,30.17-3.35,34.53,12.02,1.44,5.08,1.92,10.56,1.97,15.87.21,22.81.09,45.62.09,68.44,0,1.29,0,2.58,0,4h45.46ZM91.36,149.9v137.17h45.47c0-1.67,0-3.11,0-4.55,0-41,0-82,0-122.99,0-2.07-.17-4.17.04-6.22.29-2.82-.88-3.49-3.55-3.46-11.71.13-23.42.06-35.13.06-2.18,0-4.35,0-6.83,0Zm21.27-66.14c-8.26.3-16.85,3.51-21.7,13.09-6.25,12.32-.74,27,11.93,32.3,14.31,5.99,31.19-.57,35.65-13.85,5.45-16.22-6.17-31.46-25.87-31.54Z"/>
  </g>
</svg>