<?xml version="1.0" encoding="UTF-8"?>
<svg id="Capa_2" data-name="Capa 2" xmlns="http://www.w3.org/2000/svg" viewBox="0 0 386.82 387.56">
  <defs>
    <style>
      .cls-1 {
        fill: #fff;
        stroke: #3c8be7;
        stroke-linecap: round;
        stroke-linejoin: round;
        stroke-width: 8px;
      }
    </style>
  </defs>
  <g id="Capa_1-2" data-name="Capa 1">
    <g>
      <path class="cls-1" d="m4,193.62C4.06,88.95,88.97,3.97,193.47,4c104.66.03,189.52,85.23,189.35,190.12-.16,104.68-85.17,189.59-189.66,189.44-104.49-.14-189.22-85.22-189.16-189.94Zm306.07.33h.34c0-14.17.1-28.33-.05-42.5-.06-5.55-.27-11.15-1.09-16.62-3.65-24.27-15.63-42.38-39.12-51.58-9.74-3.81-19.97-5.44-30.37-5.48-29.66-.12-59.33-.12-89,.02-6.28.03-12.64.41-18.83,1.44-23.87,3.99-41.56,16.19-50.4,39.49-3.62,9.55-5.13,19.53-5.13,29.73-.02,29.47-.06,58.94.04,88.41.02,5.42.29,10.9,1.12,16.24,3.49,22.53,14.26,40.02,35.6,49.75,10.49,4.78,21.67,6.85,33.1,6.92,31.43.18,62.87.2,94.3,0,12.2-.08,24.11-2.37,35.15-7.91,22.65-11.36,32.63-31.06,34.14-55.19,1.09-17.51.21-35.14.21-52.72Z"/>
      <path class="cls-1" d="m193.57,99.7c15.28,0,30.56-.15,45.83.08,5.26.08,10.62.65,15.74,1.83,18.6,4.28,30.59,17.87,32.92,36.96.5,4.13.77,8.32.78,12.48.06,29.1.24,58.2-.12,87.3-.09,6.97-1.11,14.23-3.32,20.81-5.85,17.45-18.99,26.56-36.9,27.86-15.71,1.14-31.53,1.08-47.3,1.18-17.93.11-35.86-.05-53.78-.41-5.51-.11-11.07-.9-16.47-2.04-20.46-4.33-29.77-20.48-32.17-36.76-.61-4.11-.8-8.31-.81-12.47-.07-29.22-.24-58.45.12-87.67.08-6.84,1.17-13.96,3.33-20.43,5.78-17.31,18.79-26.43,36.52-27.82,15.45-1.21,31.02-.91,46.54-1.25,3.03-.07,6.06,0,9.09,0,0,.13,0,.25,0,.38Zm-.02,32.4c-34.37,0-61.74,27.46-61.71,61.92.03,34.08,27.55,61.44,61.82,61.46,33.82.02,61.41-27.67,61.33-61.54-.08-34.36-27.38-61.83-61.44-61.83Zm62.01,12.57c6.75-.09,12.18-5.65,12.09-12.39-.09-6.78-5.57-12.17-12.34-12.16-6.92.01-12.47,5.71-12.26,12.6.2,6.83,5.66,12.04,12.52,11.95Z"/>
      <path class="cls-1" d="m193.48,233.57c-21.97.06-39.73-17.68-39.79-39.72-.06-22,17.65-39.8,39.66-39.85,21.99-.05,39.72,17.65,39.78,39.72.06,22.02-17.62,39.8-39.65,39.85Z"/>
    </g>
  </g>
</svg>