<?xml version="1.0" encoding="UTF-8"?>
<svg id="Capa_2" data-name="Capa 2" xmlns="http://www.w3.org/2000/svg" viewBox="0 0 388.97 381.73">
  <defs>
    <style>
      .cls-1 {
        fill: #fff;
        stroke: #3c8be7;
        stroke-linecap: round;
        stroke-linejoin: round;
        stroke-width: 8px;
      }
    </style>
  </defs>
  <g id="Capa_1-2" data-name="Capa 1">
    <path class="cls-1" d="m4,184.6c.97-7.22,1.59-14.52,2.98-21.66C19.41,98.76,54.39,50.8,113.64,23.33,180.99-7.9,246.56-1.04,306.98,42.11c41.31,29.51,65.99,70.6,74.9,120.67,7.47,41.97,1.35,82.23-17.92,120.21-16.72,32.95-41.1,59.13-73.14,77.65-10.76,6.22-22.48,10.82-33.91,15.83-2.44,1.07-5.58,1.12-8.3.8-3.66-.43-5.89-3.01-6.48-6.7-.29-1.82-.36-3.7-.36-5.55.05-15.99.2-31.99.19-47.98,0-10.41-1.47-20.53-7.15-29.57-1.44-2.29-3.21-4.37-5.23-7.09,4.48-.7,8.77-1.29,13.03-2.05,18.73-3.35,36.15-9.56,50-23.35,11.17-11.12,17.48-24.81,20.43-40.09,3.58-18.55,5.23-37.24-1.83-55.31-2.93-7.5-7.47-14.46-11.99-21.2-1.95-2.91-2.42-4.97-1.47-8.27,4.38-15.09,2.58-29.92-2.92-44.39-.4-1.04-2.84-2.08-4.14-1.88-5.96.92-12.24,1.37-17.69,3.69-9.41,4-18.34,9.16-27.33,14.07-2.41,1.32-4.4,2-7.24,1.28-29.4-7.43-58.85-7.34-88.25.04-2.56.64-4.44.23-6.55-1.15-10.71-7-21.78-13.33-34.33-16.43-3.93-.97-8.05-1.19-12.11-1.57-1.91-.18-3,.83-3.68,2.82-5.17,15.16-6.69,30.39-1.77,45.95.36,1.13.01,3-.75,3.88-16.16,18.7-19.8,40.7-17.32,64.4,1.23,11.77,3.63,23.2,8.66,34.01,8.27,17.77,21.93,29.62,39.9,36.9,10.64,4.31,21.77,6.6,33.09,8.11,1.21.16,2.4.44,3.12.57-2.72,5-5.49,9.87-8.02,14.87-.88,1.73-1.55,3.75-1.63,5.66-.19,4.58-3.01,6.14-6.86,7.33-13.44,4.14-26.59,4.66-38.07-4.69-4.78-3.9-8.54-9.23-12.18-14.32-5.48-7.65-11.81-14.14-20.96-16.97-3.56-1.1-7.5-1.34-11.26-1.3-1.64.02-4,1.36-4.66,2.75-.46.97,1.18,3.25,2.32,4.57,1.27,1.48,2.93,2.7,4.6,3.74,8.87,5.54,14.57,13.69,18.79,22.95,3.19,7,6.08,14.12,11.74,19.62,10.56,10.27,23.57,13.68,37.83,13.17,5.43-.19,10.83-1.08,16.55-1.69.09.73.3,1.64.31,2.56.12,9.05.25,18.1.31,27.15.06,10.04-5.89,14.14-15.32,10.76-42.1-15.1-75.17-41.58-98.97-79.37-15.19-24.12-24.36-50.51-27.5-78.92-.47-4.28-.97-8.56-1.45-12.84,0-6.94,0-13.89,0-20.83Z"/>
  </g>
</svg>