<?xml version="1.0" encoding="UTF-8"?>
<svg id="Capa_2" data-name="Capa 2" xmlns="http://www.w3.org/2000/svg" viewBox="0 0 386.82 387.56">
  <defs>
    <style>
      .cls-1 {
        fill: #fff;
        stroke: #3c8be7;
        stroke-linecap: round;
        stroke-linejoin: round;
        stroke-width: 8px;
      }
    </style>
  </defs>
  <g id="Capa_1-2" data-name="Capa 1">
    <g>
      <path class="cls-1" d="m193.45,4c104.51.02,189.33,85,189.37,189.72.04,104.85-85,189.97-189.64,189.84-104.49-.13-189.23-85.2-189.18-189.93C4.05,88.97,88.96,3.98,193.45,4Zm-126.49,263.66c1.2.08,2.07.18,2.94.18,23.11,0,46.21.15,69.32-.09,6.52-.07,13.13-.75,19.54-1.99,21.23-4.12,34.2-16.74,37.25-36.59,2.91-19.02-3.89-36.85-22.31-43.76-.13-.05-.17-.32-.32-.62,15.19-7.82,20.21-20.91,18.36-37.04-1.82-15.79-11.4-25.74-25.98-30.38-7.57-2.41-15.78-3.73-23.73-3.9-23.73-.5-47.47-.18-71.21-.17-1.23,0-2.46.1-3.85.16v154.2Zm252.93-46.92c0-2.85.22-5.26-.04-7.62-.64-5.65-1.2-11.33-2.33-16.89-5.16-25.49-20.38-40.32-44.7-43.88-25.9-3.79-48.96,9.55-58.21,34.04-7.08,18.75-6.72,37.7.28,56.36,5.16,13.75,14.77,23.51,28.88,28.05,19.23,6.18,37.86,4.46,55.51-5.6,7.28-4.15,13.21-9.82,16.63-17.62,1.42-3.24,2.11-6.8,3.32-10.82-10.33,0-19.64-.03-28.95.06-.7,0-1.66.7-2.06,1.34-5.8,9.32-14.59,11.82-24.83,11.06-13.78-1.03-25.35-14.48-24.07-28.48h80.58Zm-90.6-81.95h64.63v-18.85h-64.63v18.85Z"/>
      <path class="cls-1" d="m98.09,240.82c14.78,0,29.17.28,43.54-.18,4.08-.13,8.45-1.83,12.07-3.89,7.52-4.3,9.66-11.65,9.03-19.86-.63-8.23-5.67-13.08-13.19-15.25-3.83-1.11-7.93-1.65-11.92-1.72-12.24-.22-24.49-.09-36.74-.07-.95,0-1.9.19-2.79.28v40.7Zm.02-67.58c15.12,0,29.85.17,44.57-.14,3.11-.07,6.4-1.5,9.24-3,6.19-3.29,8.09-8.94,7.53-15.67-.52-6.27-3.98-10.21-9.72-12.22-2.24-.78-4.62-1.51-6.96-1.58-12.47-.35-24.94-.49-37.41-.69-2.36-.04-4.72,0-7.24,0v33.3Z"/>
      <path class="cls-1" d="m240.54,201.94h49.6c-1.56-14.83-12.62-24.73-26.37-23.87-12.82.8-23.5,11.73-23.23,23.87Z"/>
      <path class="cls-1" d="m98.09,240.82v-40.7c.89-.09,1.84-.28,2.79-.28,12.25-.02,24.49-.15,36.74.07,3.99.07,8.09.61,11.92,1.72,7.53,2.17,12.56,7.02,13.19,15.25.63,8.21-1.51,15.56-9.03,19.86-3.62,2.07-7.98,3.76-12.07,3.89-14.37.47-28.76.18-43.54.18Z"/>
      <path class="cls-1" d="m98.11,173.25v-33.3c2.52,0,4.88-.03,7.24,0,12.47.2,24.95.34,37.41.69,2.34.07,4.72.79,6.96,1.58,5.74,2.01,9.2,5.95,9.72,12.22.56,6.73-1.34,12.38-7.53,15.67-2.83,1.51-6.12,2.93-9.24,3-14.72.31-29.45.14-44.57.14Z"/>
      <path class="cls-1" d="m240.54,201.94c-.27-12.14,10.41-23.06,23.23-23.87,13.76-.86,24.81,9.04,26.37,23.87h-49.6Z"/>
    </g>
  </g>
</svg>