<?xml version="1.0" encoding="UTF-8"?>
<svg id="Capa_2" data-name="Capa 2" xmlns="http://www.w3.org/2000/svg" viewBox="0 0 1016.5 534.47">
  <defs>
    <style>
      .cls-1 {
        fill: #3c8be7;
      }
    </style>
  </defs>
  <g id="Capa_1-2" data-name="Capa 1">
    <g>
      <path class="cls-1" d="m603.81,222.24c8.33,5.54,18.12-1.73,21.75-7.73,2.89-4.77,4.22-10.19,6.61-15.19,2.39-5,6.23-9.82,12.13-11.57.39,9.21.78,18.42,1.18,27.63.08,1.92.19,3.95,3.16,5.2,1.85.78,3.96.8,5.84.28,6.89-1.92,9.73-8.75,11.71-14.82,1.98-6.07,4.72-12.91,11.56-14.95,3.03,7.17,4.06,14.88,2.96,22.25-.19,1.29-.01,2.64.72,3.83,5.92,9.65,21.66-2.99,24.01-7.92,4.06-8.51,5.06-19.29,14-24.13,5.23,10.62,6.4,22.54,3.25,33.34,31.85-3.11,48-32.82,58.04-58.98,10.04-26.16,23.63-56.26,54.72-62.31l-48.95,93.27c36.26-6.5,64.66-29.39,87.59-53.99,22.93-24.6,42.51-52,70.16-72.59,7.66,5.52,2.42,15.78-3.29,22.26-18.19,20.69-36.39,41.38-54.59,62.06-17.6,20.01-41.39,40.39-54.63,62.78,2.29-3.87,70.28,6.66,78.31,7.41,5.5.52,11.84,1.13,15.17,5.34-2.22,2.56-5.05,2.86-8.78,2.77-9.13-.22-90.77-6.57-92.15.12-5.59,2.33-9.26,6.96-12.66,11.44-34.61,45.55-65.69,93.72-91.06,144.01-23.45,46.5-55.64,99.07-52.51,152.42-6.58-1.52-13.15-3.03-19.73-4.55-3.06-.7,13.3-65.05,15.01-70.93,6.96-23.85,15.77-47.19,26.33-69.85,21.14-45.31,49.92-87.8,81.5-127.71,2.99-3.77,21.56-34.59,24.54-34.08-15.26-2.65-33.44-4.53-43.27,5.26-8.81,8.79-15.22,25.7-33.7,16.16-7.99-4.13-12.06-13.4-9.08-20.67-5.01,6.35-10.79,12.84-19.28,15.29-8.49,2.45-20.21-1.16-22.45-8.95.31,5.49-6.11,9.42-12.38,9.7-6.28.28-12.45-1.98-18.57-3.65-6.12-1.66-13.01-2.7-18.41-.14-4.58,2.17-7.25,6.55-11.75,8.84-4.21,2.13-9.54.64-12.43-2.78-5.52,8.05-8.31,18.56-12.39,27.15-.63,1.33-1.02,2.77-.93,4.24.62,9.59,13.09,8.3,19.68,13.31,6.86,5.21,4.36,15.2-2,20.21-6.36,5.02-15.19,6.94-22.77,10.52-39.08,18.47-34.35,73.01-69.55,96.42-8.34,5.54-20.78,8.73-29.76,3.02-5.93-3.77-8.51-10.25-10.58-16.3-6.76-19.71-12.13-39.71-16.06-59.85-.76-3.87-1.64-8.06-4.91-10.88-3.87-3.33-9.75-3.68-15.03-3.79-106.84-2.26-213.39,2.5-318.44,14.21-12.91,1.44-27.31,2.57-39.53-.94-7.63-2.19-9.8-10.79-3.77-14.91,25.49-17.41,58.5-25.93,90.55-33.4,76.08-17.74,153.17-31.65,230.55-45.4-87.8-16.14-178.07-21.4-264.91-9.87-40.04,5.32-79.86,14.51-121.31,8.88-1.08-.15-2.32-.39-2.9-1.21-.46-.65-.36-1.46-.23-2.19,4.91-26.64,32.22-45.73,53.56-62.61,57.6-45.56,127.11-79.81,202.54-99.76,2.99-.79,6.36-.49,9.13,1.01,5.01,2.71,4.29,6.81,3.43,10.4-7.19,29.74-19.48,58.3-36.37,84.46-2.88,4.45-10.92,8.67-13.56,3.82l35.59-83.71c-90.24,26.75-170.93,74.4-231.97,136.94-1.05,1.08-.14,2.81,1.54,2.94,31.44,2.45,62.41-3.33,93.24-7.45,100.9-13.47,206.12-9.04,307.5,12.95,4.94,1.07,10.29,2.16,14.78.43,6.17-2.38,8.12-8.98,9.4-14.81,8.3-37.79,24.78-114.17,24.78-114.17-1.17-.94-19.36,6.19-21.65,6.9-6.96,2.17-13.91,3.96-20.78,6.35-14.65,5.09-29.17,10.42-43.55,15.99-20.09,7.78-39.92,16.03-59.45,24.74-8.48,3.78-17.12,9.24-26.55,10.83-6.22,1.05-15.53,1.75-12.85-6.47,3.59-11,18.78-15.52,29.41-20.11,12.57-5.43,25.2-10.75,38.04-15.72,32.12-12.43,65.2-24.16,99.28-32.65,8.03-2.11,16.5-4.31,22.04-9.67,4.57-4.42,6.54-10.43,8.38-16.24,7.84-24.66,15.65-49.32,23.58-73.95,3.61,2.76,6.27,6.47,7.46,10.45,1.8,5.99.29,12.17-1.69,17.91-6.52,18.83-16.11,57.64-16.11,57.64,0,0,125.49-32.6,189.48-46.01,51.44-10.78,103.27-20.41,155.54-28.48,26.11-4.03,52.34-7.97,78.72-10.88,23.68-2.61,48.49-7.5,72.63-6.58,8.48.32,27.43,3.8,18.55,11.52-6.92,6.01-24.47,6.84-33.85,7.69-103.87,9.45-206.51,25.11-307.05,47.22-8.13,1.79-26.62,6.26-26.62,6.26-7.12,20.31-12.81,41.11-21.51,60.91-3.82,8.7-8.27,17.08-14.52,24.59-2.9,3.48-6.14,6.75-9.77,9.67-1.88,1.51-3.86,2.93-5.95,4.23-1.06.66-5.65,2.35-6.01,3.29,6.16-16.34,12.83-32.52,19.35-48.74,3.39-8.41,6.78-16.82,10.17-25.23,1.7-4.2,3.39-8.41,5.09-12.61.62-1.54,3.63-12.38,5.07-12.62-40.93,7.07-81.25,16.25-120.66,27.48-4.96,1.41-16.47,3.25-16.47,3.25,0,0-4.61,13.31-6.32,19.41-10.38,37-17.94,74.74-22.63,112.89,23.2-2.26,46.4-4.53,69.59-6.79,22.29-2.18,48.29-6.68,56.34-24.62,4.58-10.2,4.85-25.45,17.49-26.87,3.03,13.82,2.29,28.07-2.13,41.21h0ZM84.92,334.15c18.44,2.26,34.55-.46,50.8-2.16,98.92-10.37,200.81-18.82,301.4-15.73,4.38.13,7.31-.46,7.21-5.38-.2-10.09,7.04-46.29-6.3-51.12-4.55-1.64-9.56-1.07-14.29-.46-75.6,9.81-150.51,22.47-224.47,37.94-38.01,7.95-76.33,16.88-110.59,32.86-1.39.65-2.14,2.24-3.77,4.05Zm459.93-.51c.18-.73.26-1.48.12-2.24-1.98-11.07-68.51-8.14-78.01-4.88-14.62,5.02-2.35,26.67.77,36.06,4.52,13.62,10.95,26.86,19.56,39.1,2.28,3.24,5.36,6.78,9.62,7.04,4.44.27,7.64-3.15,10.01-6.28,15.65-20.66,28.21-43.19,37.3-66.88.24-.63.48-1.27.64-1.92Zm-64.19-66.15c-3.86-.87-7.72-1.74-11.58-2.6-2.04-.46-4.3-.89-6.1-.08-2.56,1.16-2.91,4.18-2.96,6.75-.27,13.19-.53,26.39-.8,39.58-.03,1.63.02,3.47,1.37,4.67,1.43,1.28,3.68,1.31,5.66,1.25,24.82-.73,49.64-1.46,74.47-2.19,2.44-.07,4.97-.16,7.1-1.12,3.92-1.77,14.08-23.53,10.97-26.8-1.15-1.21-2.98-1.7-4.7-2.12-24.42-6.01-48.9-11.79-73.44-17.34Zm-10.46-15.47c0,.45.02.91.03,1.36,4.21,1.2,8.39,2.52,12.65,3.56,8.18,1.98,16.42,3.73,24.6,5.7,16.73,4.04,33.43,8.15,50.15,12.24,2.86.7,4.95.27,5.73-2.46,2.76-9.71,5.57-19.41,8.35-29.12,1.01-3.52-.83-4.8-4.68-4.35-5.69.67-11.36,1.42-17.05,2.1-15.96,1.92-31.95,3.66-47.86,5.8-10.71,1.44-21.28,3.43-31.91,5.17Zm323.1-1.03c-.63-.35-1.27-.71-1.9-1.06-1.51-.84-44.82,63.89-48.64,70.08-15.24,24.67-30.73,49.62-44.29,75.09-8.12,15.25-14.42,31.38-20.43,47.48-5.25,14.06-9.18,28.56-13.3,42.98-1.93,6.77-2.94,13.79-4.36,20.7.67.19,1.33.37,2,.56.83-1.39,1.91-2.69,2.45-4.17,3.66-9.93,7.1-19.93,10.8-29.85,6.39-17.14,12.33-34.45,19.56-51.28,6.58-15.32,14.19-30.31,22.15-45.07,7.55-13.99,16.2-27.49,24.26-41.25,7.45-12.71,14.51-25.61,22.2-38.19,7.09-11.61,14.8-22.91,22.2-34.37,2.49-3.85,4.87-7.75,7.3-11.63Zm-28.27-36.55c-.03.05-.06.1-.09.15,9.17.52,18.35.65,27.48.41,6.32-.17,12.94-.62,18-3.68,3.63-2.2,6.08-5.53,8.44-8.78,3.74-5.14,7.47-10.28,11.21-15.42.44-.6.89-1.25.86-1.99-.03-.73-.77-1.53-1.6-1.43-6.99,7.7-17.64,12.11-28.08,16-3.27,1.22-6.62,2.42-10.22,2.73-3.52.29-13.85-5.18-16.08-2.44-3.73,4.57-7,9.44-9.93,14.45Zm-197,95.64c.56.46,1.12.93,1.68,1.39,3.92-1.01,7.89-1.9,11.73-3.07,2.51-.77,5.16-9.55,3.73-11.62-1.71-2.47-8.88-3.74-10.09-1.54-2.65,4.81-4.73,9.88-7.05,14.84Zm172.12-82.53c-.55-.55-1.1-1.11-1.65-1.66-3.45.03-6.94-.17-10.32.19-1.73.18-4.64,1.32-4.61,2.09.12,3.19,1.08,6.41,2.02,9.57.07.25,2.87.6,3.48.08,3.84-3.29,7.42-6.82,11.09-10.26Z"/>
      <path class="cls-1" d="m956.26,117.05c-.41-.24-.81-.6-1.16-1.11-2.51-3.56.35-12.48,1.01-16.18,1.79-9.94,3.57-19.88,5.36-29.82.82-4.58.86-19.48,9.55-18.46,15.53,1.82,1.73,38.47.09,45.6-1.37,5.92-3.17,12.97-8.01,17.4-2.11,1.93-4.76,3.78-6.84,2.57Z"/>
      <path class="cls-1" d="m973.6,116.71c-.4-.93-.42-2.11-.23-3.09.94-4.85,3.44-9.27,5.67-13.72,3.13-6.26,5.79-12.72,7.94-19.32,1.79-5.49,2.43-11.52,5.49-16.56,1.44-2.37,7.06-10.54,10.65-5.48.69.98.9,2.14,1.03,3.26.74,6.42-.55,13.48-3.14,19.37-5.23,11.9-11.53,26.79-21.98,35.74-.99.85-2.3,1.69-3.69,1.34-.87-.22-1.42-.8-1.74-1.53Z"/>
    </g>
  </g>
</svg>