<?xml version="1.0" encoding="UTF-8"?>
<svg id="Capa_2" data-name="Capa 2" xmlns="http://www.w3.org/2000/svg" viewBox="0 0 426.69 245.9">
  <defs>
    <style>
      .cls-1 {
        fill: #fff;
        stroke: #3c8be7;
        stroke-width: 5px;
      }
    </style>
  </defs>
  <g id="Capa_1-2" data-name="Capa 1">
    <g>
      <path class="cls-1" d="m150.73,24.03c-6.13-6.45-13.25-11.65-21.36-15.6-8.11-3.95-18.98-5.93-32.61-5.93s-24.75,1.98-33.73,5.93c-8.99,3.96-17.11,9.16-24.36,15.6-12.13,12.05-20.48,26.22-25.07,42.52-4.59,16.31-7.82,35.1-9.68,56.39-1.84,21.05-1.9,39.78-.17,56.21,1.73,16.42,7.6,30.66,17.62,42.71,6.13,6.45,13.34,11.65,21.63,15.6,8.29,3.95,19.13,5.93,32.51,5.93s24.87-1.98,33.73-5.93c8.86-3.95,16.92-9.15,24.18-15.6,12.12-12.04,20.49-26.28,25.09-42.71,4.6-16.43,7.82-35.16,9.66-56.21,1.86-21.29,1.92-40.09.19-56.39-1.74-16.3-7.62-30.48-17.63-42.52Zm-29.46,98.92c-1.64,18.74-3.86,33.98-6.65,45.72-2.79,11.74-6.4,20.65-10.83,26.74-2.83,4.5-6.4,7.79-10.72,9.85-4.32,2.07-9.15,3.1-14.51,3.1s-9.67-1.06-13.68-3.19c-4.01-2.13-7.1-5.38-9.27-9.76-3.48-6.08-5.56-14.99-6.24-26.74-.68-11.74-.19-26.98,1.45-45.72,1.65-18.86,3.87-34.13,6.65-45.81,2.78-11.68,6.39-20.56,10.82-26.65,2.94-4.38,6.6-7.63,10.98-9.76,4.38-2.13,9.13-3.19,14.24-3.19s9.97,1.07,13.86,3.19c3.89,2.13,6.92,5.38,9.09,9.76,3.36,6.09,5.41,14.96,6.16,26.65.74,11.68.29,26.95-1.36,45.81Z"/>
      <path class="cls-1" d="m339.98,7.43h-129.21c-1.91,3.77-3.28,7.55-4.09,11.32-.82,3.77-1.36,7.24-1.64,10.4-.18,2.07-.25,4.56-.2,7.48.05,2.92.53,6.09,1.45,9.49h48.73c7.18,0,14.54-.37,22.09-1.1,7.55-.73,13.44-1.64,17.67-2.74l1.3,1.82c-2.22,1.71-5.04,4.02-8.45,6.94-3.42,2.92-6.81,5.87-10.17,8.85-3.36,2.98-6.12,5.57-8.25,7.76l-44.72,41.79c.57,4.63,2.32,9.28,5.26,13.96,2.93,4.69,6.37,8.18,10.31,10.49,3.55-1.7,7.38-3.04,11.48-4.02,4.1-.97,8.04-1.46,11.81-1.46,11.07,0,19.83,3.17,26.27,9.49,6.44,6.33,9.16,15.27,8.15,26.83-.79,9-3.37,16.61-7.74,22.81-4.38,6.21-9.96,10.95-16.76,14.23-6.8,3.29-14.46,4.93-22.97,4.93-9.74,0-18.55-1.76-26.46-5.29-7.9-3.53-15.04-7.85-21.41-12.96-5.06,3.65-9.63,8.21-13.7,13.69-4.07,5.47-6.88,10.89-8.45,16.24,7.53,7.06,17.51,12.99,29.92,17.79,12.41,4.8,26.65,7.21,42.71,7.21,10.83,0,21.46-1.64,31.91-4.93,10.44-3.29,19.97-8.15,28.56-14.6,8.59-6.45,15.65-14.48,21.18-24.09,5.52-9.61,8.84-20.74,9.95-33.4,1.32-15.08-.81-27.62-6.38-37.6-5.58-9.97-13.59-17.46-24.04-22.45-8.44-4.03-17.79-6.43-28.06-7.2,4.7-3.21,9-6.65,12.9-10.32l37.3-34.13c3.58-3.4,6.18-6.69,7.8-9.85,1.61-3.16,2.57-6.39,2.85-9.67.28-3.16-.09-6.96-1.1-11.41-1.01-4.44-2.94-9.88-5.78-16.33Z"/>
      <path class="cls-1" d="m423.98,206.99c-.24-4.2-.86-7.57-1.85-10.13-2.65-1.7-6.36-3.07-11.14-4.11-4.78-1.03-9.23-1.55-13.37-1.55s-8.59.52-13.37,1.55c-4.78,1.04-8.76,2.4-11.95,4.11-1.56,2.56-2.83,5.93-3.81,10.13-.98,4.2-1.56,7.39-1.75,9.58-.19,2.19-.17,5.38.07,9.58.24,4.2.92,7.57,2.03,10.13,2.89,1.71,6.63,3.07,11.23,4.11,4.59,1.03,8.96,1.55,13.09,1.55s8.68-.52,13.64-1.55c4.96-1.04,8.91-2.4,11.86-4.11,1.44-2.56,2.65-5.93,3.62-10.13.97-4.2,1.56-7.39,1.75-9.58.19-2.19.17-5.38-.08-9.58Z"/>
    </g>
  </g>
</svg>