<?xml version="1.0" encoding="UTF-8"?>
<svg id="Capa_2" data-name="Capa 2" xmlns="http://www.w3.org/2000/svg" viewBox="0 0 426.69 245.9">
  <defs>
    <style>
      .cls-1 {
        fill: #fff;
        stroke: #3c8be7;
        stroke-width: 5px;
      }
    </style>
  </defs>
  <g id="Capa_1-2" data-name="Capa 1">
    <g>
      <path class="cls-1" d="m150.73,24.03c-6.13-6.45-13.25-11.65-21.36-15.6-8.11-3.95-18.98-5.93-32.61-5.93s-24.75,1.98-33.73,5.93c-8.99,3.96-17.11,9.16-24.36,15.6-12.13,12.05-20.48,26.22-25.07,42.52-4.59,16.31-7.82,35.1-9.68,56.39-1.84,21.05-1.9,39.78-.17,56.21,1.73,16.42,7.6,30.66,17.62,42.71,6.13,6.45,13.34,11.65,21.63,15.6,8.29,3.95,19.13,5.93,32.51,5.93s24.87-1.98,33.73-5.93c8.86-3.95,16.92-9.15,24.18-15.6,12.12-12.04,20.49-26.28,25.09-42.71,4.6-16.43,7.82-35.16,9.66-56.21,1.86-21.29,1.92-40.09.19-56.39-1.74-16.3-7.62-30.48-17.63-42.52Zm-29.46,98.92c-1.64,18.74-3.86,33.98-6.65,45.72-2.79,11.74-6.4,20.65-10.83,26.74-2.83,4.5-6.4,7.79-10.72,9.85-4.32,2.07-9.15,3.1-14.51,3.1s-9.67-1.06-13.68-3.19c-4.01-2.13-7.1-5.38-9.27-9.76-3.48-6.08-5.56-14.99-6.24-26.74-.68-11.74-.19-26.98,1.45-45.72,1.65-18.86,3.87-34.13,6.65-45.81,2.78-11.68,6.39-20.56,10.82-26.65,2.94-4.38,6.6-7.63,10.98-9.76,4.38-2.13,9.13-3.19,14.24-3.19s9.97,1.07,13.86,3.19c3.89,2.13,6.92,5.38,9.09,9.76,3.36,6.09,5.41,14.96,6.16,26.65.74,11.68.29,26.95-1.36,45.81Z"/>
      <path class="cls-1" d="m317.76,200.88c-2.55,0-6.48.06-11.79.18-4.82.11-8.5.17-11.05.18.36-3.82.74-7.53,1.15-11.13.53-4.75,1.02-9.55,1.44-14.42l14.72-168.27c-3.95-.73-7.65-1.21-11.1-1.46-3.45-.24-6.81-.36-10.1-.36s-6.58.12-10.25.36c-3.67.25-7.55.73-11.62,1.46-6.55,12.29-16.08,24.52-28.58,36.68-12.5,12.17-28.24,23.79-47.21,34.86.59,5.72,2.44,11.01,5.55,15.88,3.1,4.87,6.86,8.46,11.29,10.77,9.1-3.89,18.39-8.94,27.88-15.15,9.49-6.21,18.17-13.35,26.06-21.44.17-.17.32-.35.49-.52-.14,1.06-.29,2.14-.45,3.26-1.09,7.6-2.21,15.12-3.34,22.54-1.14,7.42-1.9,13.32-2.28,17.7l-5.57,63.69c-.43,4.87-.79,9.67-1.08,14.42-.22,3.6-.49,7.32-.8,11.13-2.52-.01-6-.07-10.47-.18-4.92-.12-8.65-.18-11.21-.18h-32.12c-1.86,5.96-3.08,12.23-3.65,18.8-.54,6.2-.42,12.47.36,18.8h143.26c1.99-6.08,3.27-12.35,3.83-18.8.57-6.57.39-12.84-.54-18.8h-22.81Z"/>
      <path class="cls-1" d="m423.98,206.99c-.24-4.2-.86-7.57-1.85-10.13-2.65-1.7-6.36-3.07-11.14-4.11-4.78-1.03-9.23-1.55-13.37-1.55s-8.59.52-13.37,1.55c-4.78,1.04-8.76,2.4-11.95,4.11-1.56,2.56-2.83,5.93-3.81,10.13-.98,4.2-1.56,7.39-1.75,9.58-.19,2.19-.17,5.38.07,9.58.24,4.2.92,7.57,2.03,10.13,2.89,1.71,6.63,3.07,11.23,4.11,4.59,1.03,8.96,1.55,13.09,1.55s8.68-.52,13.64-1.55c4.96-1.04,8.91-2.4,11.86-4.11,1.44-2.56,2.65-5.93,3.62-10.13.97-4.2,1.56-7.39,1.75-9.58.19-2.19.17-5.38-.08-9.58Z"/>
    </g>
  </g>
</svg>