<?xml version="1.0" encoding="UTF-8"?>
<svg id="Capa_2" data-name="Capa 2" xmlns="http://www.w3.org/2000/svg" viewBox="0 0 426.69 245.9">
  <defs>
    <style>
      .cls-1 {
        fill: #fff;
        stroke: #3c8be7;
        stroke-width: 5px;
      }
    </style>
  </defs>
  <g id="Capa_1-2" data-name="Capa 1">
    <g>
      <path class="cls-1" d="m150.73,24.03c-6.13-6.45-13.25-11.65-21.36-15.6-8.11-3.95-18.98-5.93-32.61-5.93s-24.75,1.98-33.73,5.93c-8.99,3.96-17.11,9.16-24.36,15.6-12.13,12.05-20.48,26.22-25.07,42.52-4.59,16.31-7.82,35.1-9.68,56.39-1.84,21.05-1.9,39.78-.17,56.21,1.73,16.42,7.6,30.66,17.62,42.71,6.13,6.45,13.34,11.65,21.63,15.6,8.29,3.95,19.13,5.93,32.51,5.93s24.87-1.98,33.73-5.93c8.86-3.95,16.92-9.15,24.18-15.6,12.12-12.04,20.49-26.28,25.09-42.71,4.6-16.43,7.82-35.16,9.66-56.21,1.86-21.29,1.92-40.09.19-56.39-1.74-16.3-7.62-30.48-17.63-42.52Zm-29.46,98.92c-1.64,18.74-3.86,33.98-6.65,45.72-2.79,11.74-6.4,20.65-10.83,26.74-2.83,4.5-6.4,7.79-10.72,9.85-4.32,2.07-9.15,3.1-14.51,3.1s-9.67-1.06-13.68-3.19c-4.01-2.13-7.1-5.38-9.27-9.76-3.48-6.08-5.56-14.99-6.24-26.74-.68-11.74-.19-26.98,1.45-45.72,1.65-18.86,3.87-34.13,6.65-45.81,2.78-11.68,6.39-20.56,10.82-26.65,2.94-4.38,6.6-7.63,10.98-9.76,4.38-2.13,9.13-3.19,14.24-3.19s9.97,1.07,13.86,3.19c3.89,2.13,6.92,5.38,9.09,9.76,3.36,6.09,5.41,14.96,6.16,26.65.74,11.68.29,26.95-1.36,45.81Z"/>
      <path class="cls-1" d="m336.31,153.61c-3.65,0-6.73.06-9.23.18-2.51.12-5.58.18-9.23.18.32-3.65.7-7.33,1.15-11.04.44-3.71.83-7.45,1.16-11.22l3.77-43.07-1.83-2.01h-11.32c-9.61,0-17.43,3.17-23.46,9.49-6.03,6.33-9.52,14.96-10.48,25.92l-1.93,22.08c-.14,1.58-.31,4.2-.5,7.85-.04.72-.08,1.38-.11,2.01h-4.26c-2.44,0-6.27.06-11.51.18-5.24.12-10.89.34-16.94.64-6.05.31-11.47.7-16.26,1.19l-.78-1.46c3.85-5.11,8.09-11.53,12.73-19.25,4.63-7.72,9.15-15.54,13.55-23.45,4.4-7.91,8.07-14.72,11.01-20.44l42.01-77.56c-2.33-2.56-5.92-4.65-10.76-6.3-4.85-1.64-10.01-2.71-15.51-3.19-5.5-.48-10.47-.24-14.94.73l-73.21,135.96c-2.05,3.9-3.97,7.88-5.79,11.95-1.82,4.08-2.87,7.82-3.17,11.22-.36,4.14.15,8.67,1.55,13.6,1.39,4.93,3.35,9.64,5.88,14.14h60.77c3.77,0,7.58-.09,11.43-.27,3.85-.18,7.53-.27,11.06-.27-.32,3.65-.7,7.33-1.15,11.04-.45,3.71-.83,7.45-1.16,11.22l-2.17,24.82c3.71.73,7.41,1.19,11.1,1.37,3.69.18,7.24.27,10.65.27s7.15-.09,10.88-.27c3.73-.18,7.57-.64,11.53-1.37l2.17-24.82c.33-3.77.59-7.51.8-11.22.2-3.71.46-7.39.78-11.04,3.65,0,6.72.03,9.21.09,2.49.06,5.56.09,9.21.09h13.87c1.4-3.53,2.48-7.21,3.25-11.04.76-3.83,1.27-7.21,1.52-10.13.23-2.67.39-5.44.45-8.3.07-2.86-.02-5.69-.26-8.49h-15.51Z"/>
      <path class="cls-1" d="m423.98,206.99c-.24-4.2-.86-7.57-1.85-10.13-2.65-1.7-6.36-3.07-11.14-4.11-4.78-1.03-9.23-1.55-13.37-1.55s-8.59.52-13.37,1.55c-4.78,1.04-8.76,2.4-11.95,4.11-1.56,2.56-2.83,5.93-3.81,10.13-.98,4.2-1.56,7.39-1.75,9.58-.19,2.19-.17,5.38.07,9.58.24,4.2.92,7.57,2.03,10.13,2.89,1.71,6.63,3.07,11.23,4.11,4.59,1.03,8.96,1.55,13.09,1.55s8.68-.52,13.64-1.55c4.96-1.04,8.91-2.4,11.86-4.11,1.44-2.56,2.65-5.93,3.62-10.13.97-4.2,1.56-7.39,1.75-9.58.19-2.19.17-5.38-.08-9.58Z"/>
    </g>
  </g>
</svg>