<?xml version="1.0" encoding="UTF-8"?>
<svg id="Capa_2" data-name="Capa 2" xmlns="http://www.w3.org/2000/svg" viewBox="0 0 426.68 245.9">
  <defs>
    <style>
      .cls-1 {
        fill: #fff;
        stroke: #3c8be7;
        stroke-width: 5px;
      }
    </style>
  </defs>
  <g id="Capa_1-2" data-name="Capa 1">
    <g>
      <path class="cls-1" d="M150.73,24.04c-6.13-6.45-13.25-11.65-21.36-15.6-8.11-3.95-18.98-5.93-32.6-5.93s-24.75,1.98-33.73,5.93c-8.99,3.96-17.11,9.16-24.36,15.6-12.13,12.04-20.48,26.22-25.07,42.52-4.59,16.31-7.82,35.1-9.68,56.39-1.84,21.05-1.9,39.78-.17,56.21,1.73,16.42,7.6,30.66,17.62,42.7,6.12,6.45,13.33,11.65,21.63,15.6,8.29,3.95,19.13,5.93,32.51,5.93s24.87-1.98,33.73-5.93c8.86-3.95,16.92-9.15,24.18-15.6,12.12-12.04,20.49-26.28,25.09-42.7,4.6-16.43,7.82-35.16,9.66-56.21,1.86-21.29,1.93-40.09.19-56.39-1.74-16.3-7.62-30.48-17.63-42.52ZM121.27,122.95c-1.64,18.74-3.86,33.98-6.65,45.72-2.79,11.74-6.4,20.65-10.83,26.74-2.83,4.5-6.4,7.79-10.72,9.85-4.32,2.07-9.15,3.1-14.51,3.1s-9.67-1.06-13.68-3.19c-4.01-2.13-7.1-5.38-9.27-9.76-3.48-6.08-5.56-14.99-6.24-26.74-.68-11.74-.19-26.98,1.44-45.72,1.65-18.86,3.87-34.13,6.65-45.81,2.78-11.68,6.39-20.56,10.82-26.65,2.94-4.38,6.6-7.63,10.98-9.76,4.38-2.13,9.13-3.19,14.24-3.19s9.97,1.07,13.86,3.19c3.89,2.13,6.92,5.38,9.09,9.76,3.36,6.09,5.41,14.96,6.15,26.65.74,11.68.29,26.95-1.36,45.81Z"/>
      <path class="cls-1" d="M217.34,7.43l-2.78,2.56-15.31,108.22c1.88,3.53,4.88,6.82,8.99,9.85,4.11,3.04,8.14,4.99,12.08,5.84,6.12-4.62,12.42-8.12,18.89-10.49,6.47-2.37,12.99-3.56,19.56-3.56s13.3,1.31,19.46,3.92c6.16,2.62,11.01,6.97,14.55,13.05,3.54,6.09,4.86,14.3,3.96,24.64-.88,10.1-3.62,18.5-8.23,25.19-4.6,6.69-10.3,11.68-17.1,14.96-6.8,3.28-14.03,4.93-21.69,4.93-9.25,0-17.6-1.58-25.04-4.75-7.45-3.16-14.6-7.3-21.45-12.41-4.79,3.28-9.25,8-13.37,14.14-4.13,6.15-6.81,11.47-8.06,15.97,7.64,7.18,17.36,12.96,29.14,17.34,11.78,4.38,24.79,6.57,39.03,6.57s28.58-2.98,42.3-8.94c13.72-5.96,25.33-15.18,34.81-27.65,9.49-12.47,15.07-28.38,16.77-47.72,1.99-22.75-3.24-40.88-15.68-54.38-12.45-13.5-30.35-20.26-53.71-20.26-9.53,0-18.61,1.47-27.26,4.38.56-2.61,1.05-5.22,1.47-7.84l3.25-20.44c.52-3.16.99-7.51,1.42-13.05.05-.66.08-1.33.12-1.99,3.25.05,6.4.07,9.44.07h61.87c13.02,0,20.1-6.51,21.24-19.53.2-2.31.29-5.11.28-8.4-.02-3.28-.54-6.69-1.57-10.22h-127.38Z"/>
      <path class="cls-1" d="M423.98,206.99c-.24-4.2-.86-7.57-1.85-10.13-2.65-1.7-6.36-3.07-11.14-4.11-4.78-1.03-9.23-1.55-13.37-1.55s-8.59.52-13.37,1.55c-4.77,1.04-8.76,2.4-11.95,4.11-1.56,2.56-2.83,5.93-3.81,10.13-.98,4.2-1.56,7.39-1.75,9.58-.19,2.19-.17,5.38.07,9.58.24,4.2.92,7.57,2.03,10.13,2.89,1.71,6.63,3.07,11.23,4.11,4.59,1.03,8.96,1.55,13.1,1.55s8.68-.52,13.64-1.55c4.96-1.04,8.91-2.4,11.86-4.11,1.44-2.56,2.65-5.93,3.62-10.13.97-4.2,1.56-7.39,1.75-9.58.19-2.19.17-5.38-.07-9.58Z"/>
    </g>
  </g>
</svg>